<svg width="80" height="108" viewBox="0 0 80 108" fill="none" xmlns="http://www.w3.org/2000/svg">
<path d="M11.2385 93.3733L11.2406 93.3763C17.9103 102.673 27.5204 107.313 39.9995 107.313C52.4781 107.313 62.0397 102.674 68.6103 93.3749C75.2601 84.1046 78.5518 70.9542 78.5518 53.988C78.5518 36.9235 75.2606 23.7712 68.6088 14.5989C62.0373 5.39982 52.4758 0.811646 39.9995 0.811646C27.5226 0.811646 17.9128 5.40012 11.2421 14.5975L11.24 14.6005C4.68865 23.7724 1.44727 36.9239 1.44727 53.988C1.44727 70.9539 4.68915 84.1035 11.2385 93.3733ZM51.8942 75.2327L51.8941 75.2326L51.8928 75.2402C51.0038 80.2778 49.5843 83.7952 47.6916 85.8798C45.813 87.85 43.2685 88.8542 39.9995 88.8542C36.7357 88.8542 34.1923 87.8039 32.3114 85.7349C30.4143 83.6481 28.9451 80.1267 27.9564 75.0871C27.0688 69.9555 26.6217 62.9266 26.6217 53.988C26.6217 45.0485 27.0689 38.07 27.9562 33.0389C28.945 27.9988 30.4142 24.4772 32.3114 22.3902C34.1923 20.3213 36.7357 19.2709 39.9995 19.2709C43.2708 19.2709 45.8166 20.2766 47.6956 22.2495C49.5809 24.229 51.0021 27.7386 51.8925 32.8833L51.8924 32.8833L51.8945 32.8943C52.8802 37.9212 53.3774 44.9471 53.3774 53.988C53.3774 63.0283 52.8803 70.105 51.8942 75.2327Z" stroke="#042C4A"/>
</svg>
