<svg width="64" height="64" viewBox="0 0 64 64" fill="none" xmlns="http://www.w3.org/2000/svg">
<path fill-rule="evenodd" clip-rule="evenodd" d="M50.9149 53.9999H13.0856C11.3842 53.9999 10.0002 52.8664 10.0002 51.4731V11.5269C10.0002 10.1335 11.3842 9 13.0856 9H50.9149C52.6163 9 54.0002 10.1334 54.0002 11.5269V51.4733C54.0002 52.8664 52.6161 54 50.9149 54V53.9999ZM13.0856 10.3502C12.2934 10.3502 11.6489 10.878 11.6489 11.5268V51.4732C11.6489 52.1218 12.2936 52.6494 13.0856 52.6494H50.9149C51.7071 52.6494 52.3513 52.1217 52.3513 51.4732V11.5267C52.3513 10.878 51.7069 10.3502 50.9149 10.3502H13.0856Z" fill="#042C4A"/>
<path fill-rule="evenodd" clip-rule="evenodd" d="M40.2064 9.96252H23.7941C23.5836 9.96252 23.3816 9.88984 23.2328 9.76046C23.0839 9.63108 23.0002 9.45561 23.0002 9.27264V5.68989C23.0002 5.50692 23.0839 5.33144 23.2328 5.20206C23.3816 5.07268 23.5836 5 23.7941 5H40.2064C40.4169 5 40.6188 5.07268 40.7677 5.20206C40.9166 5.33144 41.0002 5.50692 41.0002 5.68989V9.27274C41.0002 9.45571 40.9166 9.63119 40.7677 9.76057C40.6188 9.88995 40.4169 9.96252 40.2064 9.96252ZM24.588 8.58285H39.4127V6.37978H24.588V8.58285ZM32.0001 38C29.0384 38 26.6286 36.1458 26.6286 33.8667C26.6286 31.1151 28.7599 27.3565 31.4806 25.31C31.6248 25.2015 31.8093 25.1417 32.0001 25.1417C32.1909 25.1417 32.3753 25.2015 32.5196 25.31C35.2404 27.3565 37.3716 31.1151 37.3716 33.8667C37.3716 36.1458 34.9619 38 32.0001 38ZM32.0001 26.7765C29.9017 28.619 28.2161 31.7229 28.2161 33.8666C28.2161 35.3851 29.9138 36.6202 32.0001 36.6202C34.0867 36.6202 35.7841 35.385 35.7841 33.8666C35.7841 31.7227 34.0986 28.6189 32.0001 26.7765ZM32.0002 19.5176C29.6518 19.5176 27.7412 17.8572 27.7412 15.8165C27.7412 13.7757 29.6517 12.1153 32.0002 12.1153C34.3487 12.1153 36.2593 13.7757 36.2593 15.8165C36.2593 17.8572 34.3488 19.5176 32.0002 19.5176ZM32.0002 13.495C30.5271 13.495 29.3288 14.5364 29.3288 15.8165C29.3288 17.0965 30.5272 18.138 32.0002 18.138C33.4734 18.138 34.6717 17.0965 34.6717 15.8165C34.6717 14.5364 33.4733 13.495 32.0002 13.495Z" fill="#042C4A"/>
<path fill-rule="evenodd" clip-rule="evenodd" d="M32.0002 15.6765C31.894 15.6765 31.7888 15.6588 31.6906 15.6243C31.5924 15.5898 31.5032 15.5392 31.4281 15.4754C31.353 15.4116 31.2934 15.336 31.2528 15.2526C31.2121 15.1693 31.1912 15.0801 31.1912 14.9899V12.6865C31.1912 12.5045 31.2765 12.3298 31.4282 12.2011C31.58 12.0723 31.7858 12 32.0004 12C32.215 12 32.4208 12.0723 32.5725 12.2011C32.7242 12.3298 32.8095 12.5045 32.8095 12.6865V14.9899C32.8095 15.172 32.7242 15.3467 32.5725 15.4754C32.4207 15.6042 32.2149 15.6765 32.0002 15.6765ZM40.906 41.2724H23.0946C21.157 41.2724 19.5805 39.9348 19.5805 38.2906V24.4374C19.5805 22.7932 21.157 21.4556 23.0946 21.4556H40.906C42.8434 21.4556 44.42 22.7932 44.42 24.4374V38.2906C44.42 39.9349 42.8436 41.2724 40.906 41.2724ZM23.0946 22.8289C22.0495 22.8289 21.1989 23.5504 21.1989 24.4374V38.2907C21.1989 39.1774 22.0492 39.8992 23.0946 39.8992H40.906C41.9511 39.8992 42.8017 39.1775 42.8017 38.2907V24.4373C42.8017 23.5504 41.9514 22.8288 40.906 22.8288H23.0946V22.8289ZM27.6354 59H17.8095C17.5949 59 17.389 58.9277 17.2373 58.7989C17.0855 58.6701 17.0002 58.4955 17.0002 58.3133V53.5575C17.0002 53.3754 17.0855 53.2007 17.2373 53.072C17.389 52.9432 17.5949 52.8708 17.8095 52.8708H27.6354C28.0824 52.8708 28.4444 53.1783 28.4444 53.5575V58.3133C28.4444 58.6926 28.0822 59 27.6354 59ZM18.6187 57.6267H26.8262V54.2441H18.6189L18.6187 57.6267ZM46.191 59H36.365C36.1503 59 35.9445 58.9277 35.7927 58.7989C35.641 58.6701 35.5557 58.4955 35.5557 58.3133V53.5575C35.5557 53.3754 35.641 53.2007 35.7927 53.072C35.9445 52.9432 36.1503 52.8708 36.365 52.8708H46.191C46.6379 52.8708 47.0002 53.1783 47.0002 53.5575V58.3133C47.0002 58.4955 46.915 58.6701 46.7632 58.7989C46.6115 58.9277 46.4056 59 46.191 59ZM37.1743 57.6267H45.3821V54.2441H37.1743V57.6267Z" fill="#042C4A"/>
</svg>
