<svg width="32" height="32" viewBox="0 0 32 32" fill="none" xmlns="http://www.w3.org/2000/svg">
<rect width="32" height="32" rx="16" fill="#1B3F5A"/>
<g clip-path="url(#clip0_615_7149)">
<path d="M9.45243 13.2506V12.5308H8.56382C8.49007 12.53 8.41689 12.5437 8.34852 12.571C8.28015 12.5983 8.21795 12.6387 8.16551 12.6899C8.11308 12.7411 8.07144 12.802 8.04303 12.8692C8.01463 12.9364 8 13.0085 8 13.0813V15.4041C8.00161 15.7839 8.15516 16.1476 8.4272 16.4161C8.69923 16.6847 9.06772 16.8362 9.45243 16.8378V16.1179C9.26007 16.1179 9.0755 16.0429 8.93891 15.9093C8.80232 15.7756 8.72477 15.594 8.72316 15.4041V13.2506H9.45243ZM12.8659 21.8465V22.7297C12.8659 22.8025 12.8513 22.8745 12.8229 22.9417C12.7945 23.0089 12.7528 23.0699 12.7004 23.1211C12.648 23.1722 12.5858 23.2127 12.5174 23.24C12.449 23.2673 12.3759 23.2809 12.3021 23.2801H11.9528C11.879 23.2809 11.8059 23.2673 11.7375 23.24C11.6691 23.2127 11.6069 23.1722 11.5545 23.1211C11.502 23.0699 11.4604 23.0089 11.432 22.9417C11.4036 22.8745 11.389 22.8025 11.389 22.7297V21.8465H10.6658V23.2439C10.6658 23.3437 10.6858 23.4425 10.7247 23.5346C10.7636 23.6267 10.8206 23.7104 10.8924 23.7807C10.9642 23.851 11.0493 23.9065 11.143 23.9442C11.2366 23.9818 11.3369 24.0008 11.438 24H12.7985C12.8996 24.0008 12.9999 23.9818 13.0935 23.9442C13.1872 23.9065 13.2723 23.851 13.3441 23.7807C13.4159 23.7104 13.4729 23.6267 13.5118 23.5346C13.5507 23.4425 13.5707 23.3437 13.5707 23.2439V21.8465H12.8659ZM21.5865 21.8465V22.7297C21.5865 22.8025 21.5719 22.8745 21.5435 22.9417C21.5151 23.0089 21.4735 23.0699 21.421 23.1211C21.3686 23.1722 21.3064 23.2127 21.238 23.24C21.1696 23.2673 21.0965 23.2809 21.0227 23.2801H20.6979C20.6242 23.2809 20.551 23.2673 20.4826 23.24C20.4143 23.2127 20.352 23.1722 20.2996 23.1211C20.2472 23.0699 20.2056 23.0089 20.1771 22.9417C20.1487 22.8745 20.1341 22.8025 20.1341 22.7297V21.8465H19.4048V23.2439C19.4048 23.3437 19.4249 23.4425 19.4637 23.5346C19.5026 23.6267 19.5596 23.7104 19.6314 23.7807C19.7031 23.851 19.7883 23.9065 19.882 23.9442C19.9756 23.9818 20.0759 24.0008 20.177 24H21.5375C21.6386 24.0008 21.7389 23.9818 21.8325 23.9442C21.9262 23.9065 22.0114 23.851 22.0831 23.7807C22.1549 23.7104 22.2119 23.6267 22.2508 23.5346C22.2897 23.4425 22.3097 23.3437 22.3097 23.2439V21.8465H21.5865ZM24.4362 12.5308H23.5476V13.2506H24.2769V15.4041C24.2769 15.4984 24.258 15.5917 24.2212 15.6787C24.1845 15.7657 24.1307 15.8447 24.0629 15.911C23.9951 15.9774 23.9147 16.0298 23.8262 16.0654C23.7378 16.1009 23.6431 16.1187 23.5476 16.1179V16.8378C23.9323 16.8362 24.3008 16.6847 24.5728 16.4161C24.8449 16.1476 24.9984 15.7839 25 15.4041V13.0813C25 13.0085 24.9854 12.9364 24.957 12.8692C24.9286 12.802 24.8869 12.7411 24.8345 12.6899C24.7821 12.6387 24.7199 12.5983 24.6515 12.571C24.5831 12.5437 24.5099 12.53 24.4362 12.5308Z" fill="white"/>
<path d="M21.0843 8H11.9531C11.2844 8.02213 10.6517 8.30403 10.1926 8.78439C9.73351 9.26474 9.48522 9.90466 9.50175 10.5648V21.913H23.5969V10.5648C23.6051 10.2329 23.5463 9.90274 23.4239 9.59348C23.3016 9.28421 23.1182 9.00205 22.8844 8.76338C22.6506 8.52471 22.371 8.3343 22.062 8.20325C21.753 8.0722 21.4206 8.00311 21.0843 8ZM10.1575 11.6295H16.151V16.741H10.1575V11.6295ZM22.8431 21.1267H10.1575V17.4972H12.2718V18.5921C12.2651 18.6416 12.2693 18.6919 12.284 18.7397C12.2986 18.7876 12.3235 18.8317 12.3568 18.8693C12.3902 18.9069 12.4313 18.937 12.4774 18.9576C12.5235 18.9782 12.5735 18.9889 12.6241 18.9889C12.6748 18.9889 12.7248 18.9782 12.7709 18.9576C12.817 18.937 12.8581 18.9069 12.8914 18.8693C12.9248 18.8317 12.9496 18.7876 12.9643 18.7397C12.979 18.6919 12.9832 18.6416 12.9765 18.5921V17.4972H20.0241V18.5921C20.0175 18.6416 20.0216 18.6919 20.0363 18.7397C20.051 18.7876 20.0758 18.8317 20.1092 18.8693C20.1425 18.9069 20.1836 18.937 20.2297 18.9576C20.2758 18.9782 20.3259 18.9889 20.3765 18.9889C20.4271 18.9889 20.4771 18.9782 20.5232 18.9576C20.5693 18.937 20.6104 18.9069 20.6438 18.8693C20.6771 18.8317 20.702 18.7876 20.7167 18.7397C20.7313 18.6919 20.7355 18.6416 20.7289 18.5921V17.4972H22.8431V21.1267ZM22.8431 16.741H16.8558V11.6295H22.8431V16.741ZM22.8431 10.8915H10.1575V10.5346C10.1571 10.0656 10.3407 9.61468 10.6697 9.27636C10.9987 8.93804 11.4477 8.73861 11.9225 8.71985H21.0843C21.558 8.74013 22.0054 8.94023 22.3331 9.27839C22.6609 9.61655 22.8436 10.0666 22.8431 10.5346V10.8915Z" fill="white"/>
</g>
<defs>
<clipPath id="clip0_615_7149">
<rect width="17" height="16" fill="white" transform="translate(8 8)"/>
</clipPath>
</defs>
</svg>
