<svg width="32" height="32" viewBox="0 0 32 32" fill="none" xmlns="http://www.w3.org/2000/svg">
<g clip-path="url(#clip0_261_3780)">
<path d="M31.9253 16.1733L28.0213 14.0347L28.0333 14.0133L31.376 11.624L11.3453 0.401329C9.73467 -0.469338 7.712 0.129329 6.83467 1.736L4.40667 6.184C3.52667 7.79733 4.12267 9.82533 5.72667 10.7013L14.268 15.544L11.9053 22.6307C11.632 23.4493 10.8693 23.9987 10.008 23.9987H1.33333V17.332H0V31.9987H1.33333V25.332H10.0093C11.4467 25.332 12.7173 24.416 13.172 23.0533L15.452 16.2147L24.144 21.1427L24.9373 19.6893L28.8413 21.828L31.9267 16.1747L31.9253 16.1733ZM23.6213 19.3133L6.376 9.53733C5.408 9.00933 5.05067 7.79066 5.57867 6.824L8.00667 2.376C8.36933 1.71066 9.06133 1.33333 9.768 1.33333C10.0853 1.33333 10.4067 1.40933 10.7027 1.56933L28.8933 11.7613L27.1347 13.0187L23.6227 19.3147L23.6213 19.3133ZM25.5747 18.5173L27.3827 15.204L30.1173 16.7013L28.3093 20.0133L25.5747 18.5173Z" fill="white"/>
</g>
<defs>
<clipPath id="clip0_261_3780">
<rect width="32" height="32" fill="white"/>
</clipPath>
</defs>
</svg>
