<svg width="32" height="32" viewBox="0 0 32 32" fill="none" xmlns="http://www.w3.org/2000/svg">
<g clip-path="url(#clip0_261_3782)">
<path d="M30.67 1.33997V4H26.67V1.33997H25.33V7.33997C25.33 7.8704 25.5407 8.37914 25.9158 8.75421C26.2908 9.12928 26.7996 9.33997 27.33 9.33997H27.99V23.34C27.99 23.8704 27.7792 24.3791 27.4042 24.7542C27.0291 25.1293 26.5204 25.34 25.99 25.34H19.99V3.33997C19.99 2.45587 19.6395 1.60784 19.0153 0.98175C18.391 0.355666 17.5441 0.00264699 16.66 0H3.33002C2.44593 0.00264699 1.59894 0.355666 0.974731 0.98175C0.350521 1.60784 -3.96253e-06 2.45587 0 3.33997V32H20V26.67H26C26.8832 26.67 27.7302 26.3191 28.3547 25.6946C28.9792 25.0701 29.33 24.2231 29.33 23.34V9.33997H29.99C30.5204 9.33997 31.0291 9.12928 31.4042 8.75421C31.7792 8.37914 31.99 7.8704 31.99 7.33997V1.33997H30.67ZM18.67 12.06V13.4V30.73H1.32001V13.4H18.67V12.06H1.32001V3.39996C1.32001 2.86953 1.53069 2.36085 1.90576 1.98578C2.28083 1.61071 2.78957 1.39996 3.32001 1.39996H16.66C17.1904 1.39996 17.6991 1.61071 18.0742 1.98578C18.4493 2.36085 18.66 2.86953 18.66 3.39996L18.67 12.06ZM30.67 7.39996C30.6674 7.57592 30.5956 7.74381 30.4703 7.86731C30.3449 7.9908 30.176 8.06002 30 8.06H27.33C27.1558 8.05742 26.9894 7.98705 26.8661 7.86383C26.7429 7.74061 26.6726 7.5742 26.67 7.39996V5.39996H30.67V7.39996Z" fill="white"/>
<path d="M11.8499 7.38995L10.6799 9.72998L9.45989 9.66998L10.6499 7.27997C10.6499 7.27997 10.6499 7.19999 10.6499 7.17999C10.6412 7.1735 10.6307 7.16998 10.6199 7.16998C10.6091 7.16998 10.5986 7.1735 10.5899 7.17999H8.73992C8.61889 7.18282 8.49901 7.15591 8.3908 7.10162C8.28259 7.04733 8.18934 6.9673 8.11926 6.86859C8.04917 6.76988 8.0044 6.65546 7.98882 6.5354C7.97324 6.41534 7.98733 6.29332 8.0299 6.17999L9.48992 3.46997L10.6999 3.54999L9.28991 6.15997C9.30932 6.16684 9.3305 6.16684 9.34991 6.15997H11.2099C11.3431 6.15887 11.474 6.19425 11.5885 6.26221C11.703 6.33017 11.7968 6.42812 11.8596 6.54553C11.9224 6.66294 11.9519 6.7953 11.9449 6.92828C11.9379 7.06126 11.8947 7.18981 11.8199 7.29999L11.8499 7.38995Z" fill="white"/>
<path d="M8.27008 22.3H5.12006V25.22H8.63007V26.09H4.08008V18.01H8.45007V18.88H5.12006V21.44H8.27008V22.3Z" fill="white"/>
<path d="M11.87 26.09L9.22998 18.01H10.36L11.62 22.01C11.96 23.1 12.26 24.08 12.48 25.01C12.71 24.08 13.05 23.06 13.41 22.01L14.77 18.01H15.89L12.99 26.09H11.87Z" fill="white"/>
</g>
<defs>
<clipPath id="clip0_261_3782">
<rect width="32" height="32" fill="white"/>
</clipPath>
</defs>
</svg>
