<svg width="64" height="64" viewBox="0 0 64 64" fill="none" xmlns="http://www.w3.org/2000/svg">
<path d="M43.3468 40.0208C43.7724 39.2547 44.109 38.4425 44.35 37.6H46.4004C47.2828 37.6 48.0004 36.8824 48.0004 36V32.8C48.0004 31.9176 47.2828 31.2 46.4004 31.2H44.35C44.1088 30.3575 43.7722 29.5453 43.3468 28.7792L44.7968 27.3292C44.9459 27.181 45.0641 27.0047 45.1446 26.8106C45.225 26.6164 45.2662 26.4082 45.2656 26.198C45.2662 25.9877 45.2251 25.7794 45.1446 25.5852C45.0641 25.391 44.9459 25.2146 44.7968 25.0664L42.534 22.8036C42.2336 22.5041 41.8268 22.3359 41.4026 22.3359C40.9784 22.3359 40.5716 22.5041 40.2712 22.8036L38.8212 24.2536C38.0551 23.8281 37.2429 23.4916 36.4004 23.2504V21.2C36.4004 20.3176 35.6828 19.6 34.8004 19.6H31.6004C30.718 19.6 30.0004 20.3176 30.0004 21.2V23.2504C29.1579 23.4916 28.3457 23.8282 27.5796 24.2536L26.1292 22.8036C25.8288 22.5041 25.422 22.3359 24.9978 22.3359C24.5736 22.3359 24.1668 22.5041 23.8664 22.8036L21.6036 25.066C21.4545 25.2142 21.3363 25.3906 21.2558 25.5848C21.1753 25.779 21.1342 25.9873 21.1348 26.1976C21.1348 26.6248 21.3012 27.0268 21.6036 27.3288L23.0536 28.7788C22.628 29.5448 22.2914 30.357 22.0504 31.1996H20.0004C19.118 31.1996 18.4004 31.9172 18.4004 32.7996V35.9996C18.4004 36.882 19.118 37.5996 20.0004 37.5996H22.0508C22.292 38.4421 22.6286 39.2543 23.054 40.0204L21.604 41.4704C21.3016 41.7724 21.1352 42.1744 21.1352 42.6016C21.1352 43.0288 21.3016 43.4308 21.604 43.7332L23.8668 45.996C24.1672 46.2955 24.574 46.4636 24.9982 46.4636C25.4224 46.4636 25.8292 46.2955 26.1296 45.996L27.5796 44.546C28.3457 44.9714 29.1579 45.308 30.0004 45.5492V47.6C30.0004 48.4824 30.718 49.2 31.6004 49.2H34.8004C35.6828 49.2 36.4004 48.4824 36.4004 47.6V45.5496C37.2429 45.3084 38.0551 44.9718 38.8212 44.5464L40.2712 45.9968C40.5716 46.2963 40.9784 46.4644 41.4026 46.4644C41.8268 46.4644 42.2336 46.2963 42.534 45.9968L44.7968 43.734C45.0992 43.432 45.2656 43.03 45.2656 42.6024C45.2656 42.1748 45.0992 41.7732 44.7968 41.4712L43.3468 40.0208ZM41.4028 44.8652L39.514 42.976C39.3857 42.8477 39.2177 42.7669 39.0375 42.7467C38.8572 42.7265 38.6755 42.7681 38.522 42.8648C37.5696 43.4655 36.5218 43.8996 35.4236 44.1484C35.2467 44.1885 35.0888 44.2876 34.9756 44.4293C34.8625 44.5711 34.8008 44.747 34.8008 44.9284V47.6H31.6008V44.9288C31.6008 44.7474 31.5391 44.5715 31.426 44.4297C31.3128 44.288 31.1548 44.1889 30.978 44.1488C29.8798 43.8998 28.8321 43.4658 27.8796 42.8652C27.7262 42.7681 27.5443 42.7263 27.3639 42.7465C27.1835 42.7667 27.0153 42.8478 26.8872 42.9764L24.998 44.8656L22.7352 42.6028L24.6244 40.714C24.8888 40.4496 24.9348 40.038 24.7356 39.722C24.1347 38.7696 23.7005 37.7218 23.4516 36.6236C23.4116 36.4465 23.3125 36.2883 23.1707 36.175C23.0289 36.0617 22.8527 36 22.6712 36H20.0004V32.8H22.6712C23.0448 32.8 23.3688 32.5416 23.4512 32.1772C23.7004 31.079 24.1346 30.0313 24.7352 29.0788C24.8319 28.9253 24.8735 28.7435 24.8533 28.5633C24.8331 28.3831 24.7522 28.215 24.624 28.0868L22.7348 26.1976L24.9976 23.9348L26.8868 25.824C27.015 25.9522 27.1831 26.0331 27.3633 26.0533C27.5436 26.0735 27.7253 26.0318 27.8788 25.9352C28.8313 25.3346 29.879 24.9005 30.9772 24.6516C31.1541 24.6113 31.3121 24.5122 31.4253 24.3704C31.5386 24.2286 31.6003 24.0526 31.6004 23.8712V21.2H34.8004V23.8712C34.8004 24.0525 34.8621 24.2285 34.9752 24.3702C35.0884 24.5119 35.2463 24.611 35.4232 24.6512C36.5213 24.9001 37.5691 25.3342 38.5216 25.9348C38.8376 26.134 39.2496 26.088 39.5136 25.8236L41.4028 23.9344L43.6656 26.1972L41.7764 28.086C41.6481 28.2142 41.5672 28.3822 41.547 28.5625C41.5268 28.7428 41.5685 28.9245 41.6652 29.078C42.2659 30.0304 42.7001 31.0782 42.9492 32.1764C42.9894 32.3532 43.0884 32.5112 43.2301 32.6243C43.3719 32.7375 43.5478 32.7991 43.7292 32.7992H46.4004V35.9992H43.7296C43.356 35.9992 43.032 36.2576 42.9496 36.622C42.7004 37.7201 42.2662 38.7678 41.6656 39.7204C41.5689 39.8738 41.5273 40.0556 41.5475 40.2358C41.5677 40.4161 41.6486 40.5841 41.7768 40.7124L43.666 42.6012L41.4028 44.8652Z" fill="#042C4A"/>
<path d="M33.2003 28C29.6715 28 26.8003 30.8712 26.8003 34.4C26.8003 37.9288 29.6715 40.8 33.2003 40.8C36.7291 40.8 39.6003 37.9288 39.6003 34.4C39.6003 30.8712 36.7291 28 33.2003 28ZM33.2003 39.2C30.5535 39.2 28.4003 37.0468 28.4003 34.4C28.4003 31.7532 30.5535 29.6 33.2003 29.6C35.8471 29.6 38.0003 31.7532 38.0003 34.4C38.0003 37.0468 35.8471 39.2 33.2003 39.2ZM56.4411 18.8276C55.9003 19.3564 54.7959 19.5984 53.9991 19.6C53.0831 19.6056 51.8167 19.2676 51.1611 18.6272C50.1531 17.6432 48.4459 17.2012 47.2015 17.2H47.1959C46.0843 17.2 44.5687 17.5224 43.6415 18.4276C43.5648 18.5006 43.5034 18.5882 43.4608 18.6852C43.4181 18.7821 43.3952 18.8866 43.3933 18.9925C43.3914 19.0984 43.4105 19.2036 43.4496 19.3021C43.4887 19.4006 43.5469 19.4903 43.6209 19.566C43.6949 19.6418 43.7833 19.7021 43.8808 19.7435C43.9783 19.7848 44.0831 19.8064 44.189 19.807C44.2949 19.8075 44.3999 19.787 44.4978 19.7467C44.5958 19.7064 44.6847 19.647 44.7595 19.572C45.3059 19.0384 46.3763 18.7996 47.1959 18.7996H47.1999C48.1191 18.8004 49.3911 19.1344 50.0431 19.7716C51.1227 20.826 52.8431 21.1996 53.9931 21.1996H54.0019C55.1163 21.1976 56.6363 20.8744 57.5599 19.972C57.6351 19.8985 57.695 19.811 57.7363 19.7144C57.7776 19.6177 57.7995 19.5139 57.8007 19.4088C57.8019 19.3038 57.7824 19.1995 57.7433 19.1019C57.7041 19.0044 57.6462 18.9155 57.5727 18.8404C57.4993 18.7652 57.4117 18.7053 57.3151 18.664C57.2185 18.6227 57.1147 18.6008 57.0096 18.5996C56.9045 18.5984 56.8002 18.618 56.7027 18.6571C56.6052 18.6962 56.5163 18.7541 56.4411 18.8276ZM56.4411 14.4276C55.9003 14.9564 54.7959 15.1984 53.9991 15.2C53.0831 15.1884 51.8167 14.8676 51.1611 14.2272C50.1531 13.2432 48.4459 12.8012 47.2015 12.8H47.1959C46.0843 12.8 44.5687 13.1224 43.6415 14.0276C43.5648 14.1006 43.5034 14.1882 43.4608 14.2852C43.4181 14.3821 43.3952 14.4866 43.3933 14.5925C43.3914 14.6984 43.4105 14.8036 43.4496 14.9021C43.4887 15.0006 43.5469 15.0903 43.6209 15.166C43.6949 15.2418 43.7833 15.3021 43.8808 15.3435C43.9783 15.3848 44.0831 15.4064 44.189 15.407C44.2949 15.4075 44.3999 15.387 44.4978 15.3467C44.5958 15.3064 44.6847 15.247 44.7595 15.172C45.3059 14.6384 46.3763 14.3996 47.1959 14.3996H47.1999C48.1191 14.4004 49.3911 14.7344 50.0431 15.3716C51.1227 16.426 52.8431 16.7996 53.9931 16.7996H54.0019C55.1163 16.7976 56.6363 16.4744 57.5599 15.572C57.6351 15.4985 57.695 15.411 57.7363 15.3144C57.7776 15.2177 57.7995 15.1139 57.8007 15.0088C57.8019 14.9038 57.7824 14.7995 57.7433 14.7019C57.7041 14.6044 57.6462 14.5155 57.5727 14.4404C57.4993 14.3652 57.4117 14.3053 57.3151 14.264C57.2185 14.2227 57.1147 14.2008 57.0096 14.1996C56.9045 14.1984 56.8002 14.218 56.7027 14.2571C56.6052 14.2962 56.5163 14.3541 56.4411 14.4276ZM44.7591 10.7724C45.3055 10.2388 46.3759 9.99999 47.1955 9.99999H47.1995C48.1187 10.0008 49.3907 10.3348 50.0427 10.972C51.1223 12.0264 52.8427 12.4 53.9927 12.4H54.0015C55.1159 12.398 56.6359 12.0748 57.5595 11.1724C57.7113 11.0241 57.798 10.8215 57.8005 10.6093C57.803 10.3971 57.721 10.1926 57.5727 10.0408C57.4244 9.88898 57.2219 9.8023 57.0097 9.79983C56.7974 9.79735 56.5929 9.87928 56.4411 10.0276C55.9003 10.5564 54.7959 10.7984 53.9991 10.8C53.0831 10.7944 51.8167 10.4676 51.1611 9.82719C50.1531 8.84319 48.4459 8.40119 47.2015 8.39999H47.1959C46.0843 8.39999 44.5687 8.72239 43.6415 9.62759C43.4928 9.77647 43.4087 9.97795 43.4075 10.1884C43.4063 10.3988 43.4881 10.6012 43.6351 10.7518C43.7821 10.9024 43.9825 10.989 44.1929 10.9928C44.4033 10.9967 44.6067 10.9175 44.7591 10.7724ZM51.6003 40.4C50.7967 40.4 49.3951 42.4904 48.3611 44.2436C47.2839 46.07 46.0003 48.69 46.0003 50.8C46.0003 53.888 48.5123 56.4 51.6003 56.4C54.6883 56.4 57.2003 53.888 57.2003 50.8C57.2003 48.69 55.9167 46.07 54.8395 44.2436C53.8055 42.4904 52.4039 40.4 51.6003 40.4ZM51.6003 54.8C49.3947 54.8 47.6003 53.0056 47.6003 50.8C47.6003 48.1464 50.4295 43.7412 51.6003 42.3064C52.7711 43.7412 55.6003 48.1464 55.6003 50.8C55.6003 53.0056 53.8059 54.8 51.6003 54.8ZM43.6003 52H24.4003C24.1882 52 23.9847 52.0843 23.8346 52.2343C23.6846 52.3843 23.6003 52.5878 23.6003 52.8C23.6003 53.0122 23.6846 53.2156 23.8346 53.3657C23.9847 53.5157 24.1882 53.6 24.4003 53.6H43.6003C43.8125 53.6 44.016 53.5157 44.166 53.3657C44.316 53.2156 44.4003 53.0122 44.4003 52.8C44.4003 52.5878 44.316 52.3843 44.166 52.2343C44.016 52.0843 43.8125 52 43.6003 52ZM52.4003 38V23.2C52.4003 22.9878 52.316 22.7843 52.166 22.6343C52.016 22.4843 51.8125 22.4 51.6003 22.4C51.3882 22.4 51.1847 22.4843 51.0346 22.6343C50.8846 22.7843 50.8003 22.9878 50.8003 23.2V38C50.8003 38.2122 50.8846 38.4156 51.0346 38.5657C51.1847 38.7157 51.3882 38.8 51.6003 38.8C51.8125 38.8 52.016 38.7157 52.166 38.5657C52.316 38.4156 52.4003 38.2122 52.4003 38ZM22.8003 16.8H41.6003C41.8125 16.8 42.016 16.7157 42.166 16.5657C42.316 16.4156 42.4003 16.2122 42.4003 16C42.4003 15.7878 42.316 15.5843 42.166 15.4343C42.016 15.2843 41.8125 15.2 41.6003 15.2H22.8003C22.5882 15.2 22.3847 15.2843 22.2346 15.4343C22.0846 15.5843 22.0003 15.7878 22.0003 16C22.0003 16.2122 22.0846 16.4156 22.2346 16.5657C22.3847 16.7157 22.5882 16.8 22.8003 16.8ZM14.0003 26.8V38.4C14.0003 38.6122 14.0846 38.8156 14.2346 38.9657C14.3847 39.1157 14.5882 39.2 14.8003 39.2C15.0125 39.2 15.216 39.1157 15.366 38.9657C15.516 38.8156 15.6003 38.6122 15.6003 38.4V26.8C15.6003 26.5878 15.516 26.3843 15.366 26.2343C15.216 26.0843 15.0125 26 14.8003 26C14.5882 26 14.3847 26.0843 14.2346 26.2343C14.0846 26.3843 14.0003 26.5878 14.0003 26.8ZM19.0703 47.6584L21.7555 48.378C21.9605 48.4329 22.179 48.4041 22.3628 48.298C22.5465 48.1918 22.6806 48.017 22.7355 47.812C22.7904 47.607 22.7616 47.3886 22.6555 47.2048C22.5493 47.021 22.3745 46.8869 22.1695 46.832L19.9371 46.234L20.5351 44.0012C20.5646 43.899 20.5735 43.792 20.5611 43.6863C20.5488 43.5807 20.5155 43.4786 20.4632 43.3859C20.4109 43.2933 20.3407 43.212 20.2566 43.1469C20.1725 43.0817 20.0763 43.034 19.9736 43.0065C19.8708 42.9789 19.7636 42.9722 19.6583 42.9866C19.5529 43.001 19.4514 43.0362 19.3598 43.0903C19.2682 43.1444 19.1884 43.2162 19.1248 43.3015C19.0613 43.3868 19.0155 43.4839 18.9899 43.5872L18.2703 46.2724L15.6003 47.8144V44.7312L17.5659 42.7656C17.6423 42.6918 17.7033 42.6035 17.7452 42.5059C17.7871 42.4083 17.8092 42.3033 17.8101 42.1971C17.8111 42.0909 17.7908 41.9855 17.7506 41.8872C17.7104 41.7889 17.651 41.6996 17.5758 41.6245C17.5007 41.5494 17.4114 41.49 17.3131 41.4497C17.2148 41.4095 17.1094 41.3893 17.0032 41.3902C16.897 41.3911 16.792 41.4132 16.6944 41.4551C16.5968 41.497 16.5085 41.558 16.4347 41.6344L14.8003 43.2688L13.1659 41.6344C13.0921 41.558 13.0039 41.497 12.9063 41.4551C12.8086 41.4132 12.7037 41.3911 12.5974 41.3902C12.4912 41.3893 12.3859 41.4095 12.2876 41.4497C12.1892 41.49 12.0999 41.5494 12.0248 41.6245C11.9497 41.6996 11.8903 41.7889 11.8501 41.8872C11.8098 41.9855 11.7896 42.0909 11.7905 42.1971C11.7915 42.3033 11.8135 42.4083 11.8554 42.5059C11.8974 42.6035 11.9583 42.6918 12.0347 42.7656L14.0003 44.7312V47.8144L11.3303 46.2728L10.6107 43.5876C10.5852 43.4843 10.5393 43.3872 10.4758 43.3019C10.4123 43.2166 10.3324 43.1448 10.2408 43.0907C10.1492 43.0366 10.0478 43.0014 9.9424 42.987C9.83701 42.9726 9.72982 42.9793 9.62708 43.0069C9.52434 43.0344 9.42812 43.0821 9.34405 43.1473C9.25998 43.2124 9.18975 43.2937 9.13746 43.3863C9.08517 43.479 9.05188 43.5811 9.03953 43.6867C9.02718 43.7924 9.03602 43.8994 9.06553 44.0016L9.66353 46.2344L7.43113 46.8324C7.22612 46.8873 7.05131 47.0214 6.94516 47.2052C6.83902 47.389 6.81023 47.6074 6.86513 47.8124C6.92003 48.0174 7.05412 48.1922 7.23791 48.2984C7.42169 48.4045 7.64012 48.4333 7.84513 48.3784L10.5303 47.6588L13.2003 49.2L10.5303 50.7416L7.84513 50.022C7.74362 49.9948 7.63775 49.9879 7.53356 50.0016C7.42937 50.0153 7.32891 50.0495 7.23791 50.102C7.14691 50.1546 7.06715 50.2245 7.00319 50.3079C6.93922 50.3913 6.89231 50.4865 6.86513 50.588C6.83795 50.6895 6.83102 50.7954 6.84475 50.8996C6.85849 51.0037 6.89261 51.1042 6.94516 51.1952C6.99772 51.2862 7.06769 51.366 7.15107 51.4299C7.23445 51.4939 7.32962 51.5408 7.43113 51.568L9.66353 52.166L9.06553 54.3988C9.03602 54.501 9.02718 54.608 9.03953 54.7137C9.05188 54.8193 9.08517 54.9214 9.13746 55.014C9.18975 55.1067 9.25998 55.1879 9.34405 55.2531C9.42812 55.3182 9.52434 55.366 9.62708 55.3935C9.72982 55.421 9.83701 55.4278 9.9424 55.4134C10.0478 55.399 10.1492 55.3637 10.2408 55.3097C10.3324 55.2556 10.4123 55.1838 10.4758 55.0985C10.5393 55.0132 10.5852 54.916 10.6107 54.8128L11.3303 52.1276L14.0003 50.5856V53.6688L12.0347 55.6344C11.9583 55.7082 11.8974 55.7965 11.8554 55.8941C11.8135 55.9917 11.7915 56.0966 11.7905 56.2029C11.7896 56.3091 11.8098 56.4144 11.8501 56.5128C11.8903 56.6111 11.9497 56.7004 12.0248 56.7755C12.0999 56.8506 12.1892 56.91 12.2876 56.9502C12.3859 56.9905 12.4912 57.0107 12.5974 57.0098C12.7037 57.0089 12.8086 56.9868 12.9063 56.9449C13.0039 56.9029 13.0921 56.842 13.1659 56.7656L14.8003 55.1312L16.4347 56.7656C16.5907 56.922 16.7955 57 17.0003 57C17.2051 57 17.4099 56.922 17.5659 56.7656C17.7159 56.6156 17.8002 56.4121 17.8002 56.2C17.8002 55.9879 17.7159 55.7844 17.5659 55.6344L15.6003 53.6688V50.5856L18.2703 52.1272L18.9899 54.8124C19.0155 54.9156 19.0613 55.0128 19.1248 55.0981C19.1884 55.1834 19.2682 55.2552 19.3598 55.3093C19.4514 55.3633 19.5529 55.3986 19.6583 55.413C19.7636 55.4274 19.8708 55.4206 19.9736 55.3931C20.0763 55.3656 20.1725 55.3178 20.2566 55.2527C20.3407 55.1875 20.4109 55.1063 20.4632 55.0136C20.5155 54.921 20.5488 54.8189 20.5611 54.7133C20.5735 54.6076 20.5646 54.5006 20.5351 54.3984L19.9371 52.1656L22.1695 51.5676C22.3745 51.5127 22.5493 51.3786 22.6555 51.1948C22.7616 51.011 22.7904 50.7926 22.7355 50.5876C22.6806 50.3826 22.5465 50.2078 22.3628 50.1016C22.179 49.9955 21.9605 49.9667 21.7555 50.0216L19.0703 50.7412L16.4003 49.2L19.0703 47.6584ZM14.8003 24.4C18.7395 24.4 20.8003 21.1804 20.8003 18C20.8003 16.5256 19.8279 14.4208 18.9551 13.4532C18.845 13.3313 18.7001 13.2462 18.5399 13.2095C18.3798 13.1728 18.2123 13.1863 18.0601 13.2482C17.9079 13.3101 17.7784 13.4173 17.6893 13.5553C17.6002 13.6933 17.5557 13.8554 17.5619 14.0196C17.5867 14.6688 17.4475 15.1996 17.1895 15.44C17.1323 15.4928 16.9583 15.654 16.5143 15.6048C16.4174 15.595 16.324 15.5632 16.2413 15.5118C16.1586 15.4603 16.0887 15.3906 16.0371 15.308C15.8511 15.022 15.8335 14.5776 15.9887 14.0888C17.2295 10.1804 14.8443 8.47639 13.2655 7.34879C13.1281 7.25058 12.9631 7.1984 12.7941 7.19973C12.6252 7.20106 12.4611 7.25583 12.3252 7.35619C12.1893 7.45655 12.0886 7.59735 12.0377 7.75841C11.9867 7.91948 11.9881 8.09254 12.0415 8.25279C12.2807 8.96999 12.6967 10.798 11.3999 12.2712C9.85753 14.024 8.40033 15.6792 8.40033 18C8.40033 21.828 10.9723 24.4 14.8003 24.4ZM12.6007 13.3284C13.5715 12.2256 13.8663 10.99 13.8887 9.94399C14.6967 10.8312 15.0123 11.8744 14.4631 13.6044C14.1579 14.5656 14.2403 15.48 14.6951 16.1796C14.8763 16.4601 15.1178 16.6968 15.4019 16.8724C15.6859 17.048 16.0056 17.1581 16.3375 17.1948C17.3071 17.302 17.9287 16.9368 18.2791 16.6116C18.443 16.4575 18.5844 16.2811 18.6991 16.0876C18.9907 16.7584 19.2003 17.476 19.2003 18C19.2003 19.7828 18.2735 22.8 14.8003 22.8C11.8395 22.8 10.0003 20.9608 10.0003 18C10.0003 16.2832 11.2055 14.914 12.6007 13.3284Z" fill="#042C4A"/>
</svg>
