<svg width="64" height="64" viewBox="0 0 64 64" fill="none" xmlns="http://www.w3.org/2000/svg">
<g clip-path="url(#clip0_262_3811)">
<path d="M31.88 14L31.64 15.6H32.64L32.89 14H31.88ZM54 14H39.85C40.0492 14.5167 40.1934 15.053 40.28 15.6H54C54.0521 15.5986 54.1038 15.6078 54.1523 15.6268C54.2008 15.6458 54.245 15.6743 54.2823 15.7106C54.3195 15.747 54.3492 15.7904 54.3694 15.8384C54.3896 15.8863 54.4 15.9379 54.4 15.99V48.41H53.3C53.3689 48.7691 53.4023 49.1343 53.4 49.5C53.4102 49.6665 53.4102 49.8335 53.4 50H56.03V16C56.03 15.7348 55.9773 15.4722 55.875 15.2276C55.7726 14.983 55.6225 14.7612 55.4336 14.5751C55.2447 14.3889 55.0207 14.2422 54.7746 14.1435C54.5284 14.0447 54.2652 13.996 54 14ZM9.60001 48.41V15.99C9.59999 15.9379 9.61039 15.8863 9.63062 15.8384C9.65084 15.7904 9.68046 15.747 9.71774 15.7106C9.75502 15.6743 9.79921 15.6458 9.84769 15.6268C9.89616 15.6078 9.94795 15.5986 10 15.6H23.72C23.8066 15.053 23.9508 14.5167 24.15 14H10C9.46957 14 8.96086 14.2107 8.58578 14.5857C8.21071 14.9608 8 15.4695 8 16V50H39.63C39.6197 49.8335 39.6197 49.6665 39.63 49.5C39.6276 49.1343 39.6612 48.7691 39.73 48.41H9.60001ZM29.6 14.0099L28.5 15.61H29.72L30.82 14.0099H29.6Z" fill="#042C4A"/>
<path d="M32 34.99H16C14.6739 34.99 13.4022 35.5168 12.4645 36.4545C11.5268 37.3921 11 38.6639 11 39.99V46.99H37V39.99C37 38.6639 36.4732 37.3921 35.5356 36.4545C34.5979 35.5168 33.3261 34.99 32 34.99ZM35.4 45.4H12.6V39.99C12.6026 39.0891 12.9617 38.2258 13.5988 37.5887C14.2358 36.9517 15.0991 36.5926 16 36.59H32C32.9017 36.59 33.7665 36.9482 34.4041 37.5858C35.0418 38.2234 35.4 39.0883 35.4 39.99V45.4Z" fill="#042C4A"/>
<path d="M41.9001 15.6C41.8312 15.0564 41.7106 14.5207 41.5401 14C40.902 11.9696 39.6328 10.1957 37.917 8.9364C36.2012 7.6771 34.1284 6.99805 32.0001 6.99805C29.8718 6.99805 27.799 7.6771 26.0832 8.9364C24.3674 10.1957 23.0982 11.9696 22.4601 14C22.2896 14.5207 22.169 15.0564 22.1001 15.6C22.0313 16.0601 21.9979 16.5248 22.0001 16.99C22.0001 19.6422 23.0537 22.1857 24.929 24.061C26.8044 25.9364 29.3479 26.99 32.0001 26.99C34.6523 26.99 37.1958 25.9364 39.0712 24.061C40.9465 22.1857 42.0001 19.6422 42.0001 16.99C42.0024 16.5248 41.9689 16.0601 41.9001 15.6ZM32.0001 25.4C29.7714 25.3973 27.6348 24.5101 26.0598 22.9332C24.4848 21.3563 23.6001 19.2187 23.6001 16.99C23.5996 16.524 23.6397 16.0589 23.7201 15.6C23.8067 15.053 23.9509 14.5167 24.1501 14C24.7601 12.413 25.8369 11.0482 27.2383 10.0855C28.6397 9.12284 30.2999 8.60754 32.0001 8.60754C33.7003 8.60754 35.3606 9.12284 36.762 10.0855C38.1634 11.0482 39.2401 12.413 39.8501 14C40.0493 14.5167 40.1935 15.053 40.2801 15.6C40.3605 16.0589 40.4007 16.524 40.4001 16.99C40.4014 18.0944 40.1852 19.1883 39.7637 20.2091C39.3423 21.23 38.7239 22.1578 37.9439 22.9397C37.1639 23.7216 36.2376 24.3421 35.2177 24.766C34.1979 25.1898 33.1045 25.4087 32.0001 25.41V25.4Z" fill="#042C4A"/>
<path d="M54.4001 46.41C53.7083 44.6602 52.4555 43.1893 50.838 42.228C49.2205 41.2666 47.3297 40.8692 45.462 41.098C43.5943 41.3267 41.8553 42.1687 40.5176 43.4919C39.1799 44.8152 38.3191 46.545 38.0701 48.41C38.0215 48.7713 37.9982 49.1356 38.0001 49.5001C38.0001 49.6701 38.0001 49.8301 38.0001 50.0001C38.106 52.1831 39.0478 54.2416 40.6302 55.7492C42.2127 57.2567 44.3145 58.0976 46.5001 58.0976C48.6857 58.0976 50.7875 57.2567 52.3699 55.7492C53.9524 54.2416 54.8942 52.1831 55.0001 50.0001C55.0001 49.8301 55.0001 49.6701 55.0001 49.5001C54.9993 48.4412 54.7956 47.3923 54.4001 46.41ZM46.4701 56.41C44.7271 56.4069 43.0499 55.7441 41.7754 54.5551C40.501 53.366 39.7239 51.7387 39.6001 50.0001C39.5898 49.8336 39.5898 49.6666 39.6001 49.5001C39.5977 49.1343 39.6312 48.7692 39.7001 48.41C39.9499 46.7858 40.773 45.3046 42.0203 44.2345C43.2676 43.1644 44.8567 42.5762 46.5001 42.5762C48.1435 42.5762 49.7326 43.1644 50.9798 44.2345C52.2271 45.3046 53.0502 46.7858 53.3001 48.41C53.3689 48.7692 53.4024 49.1343 53.4001 49.5001C53.4103 49.6666 53.4103 49.8336 53.4001 50.0001C53.2779 51.7499 52.493 53.3872 51.2053 54.5783C49.9176 55.7694 48.2241 56.4245 46.4701 56.41Z" fill="#042C4A"/>
<path d="M9.25 48.41L9.39001 50.0001L10.07 57.6H17.79L21.79 50.0001L22.63 48.41H9.25ZM16.83 56.0001H11.53L11 50.0001H20L16.83 56.0001Z" fill="#042C4A"/>
<path fill-rule="evenodd" clip-rule="evenodd" d="M32.59 16L32.65 15.6L32.9 14L33.5001 10.0699L32.59 9.70996L29.64 14L28.54 15.6L26.54 18.5H30.4L29.5 23.91L30.4 24.29L36.48 16H32.59ZM28.45 17.5L29.76 15.6L30.86 14L32.18 12.08L31.88 14L31.64 15.6L31.42 17H34.52L30.84 22L31.59 17.49L28.45 17.5Z" fill="#042C4A"/>
<path d="M8 31.99V49.99H39.63C39.6197 49.8235 39.6197 49.6565 39.63 49.49C39.6276 49.1243 39.6612 48.7592 39.73 48.4H9.63V33.59H54.43V48.41H53.33C53.3988 48.7692 53.4324 49.1343 53.43 49.5C53.4403 49.6665 53.4403 49.8335 53.43 50H56.06V32L8 31.99Z" fill="#042C4A"/>
<path d="M46.7999 14.49H45.2V32.49H46.7999V14.49Z" fill="#042C4A"/>
</g>
<defs>
<clipPath id="clip0_262_3811">
<rect width="48" height="50.99" fill="white" transform="translate(8 7)"/>
</clipPath>
</defs>
</svg>
