<svg width="100" height="100" viewBox="0 0 100 100" fill="none" xmlns="http://www.w3.org/2000/svg">
<path d="M29.1411 27.5389C28.4225 26.8204 27.2575 26.8204 26.5389 27.5389C25.8204 28.2575 25.8204 29.4225 26.5389 30.1411L46.3978 50L26.5389 69.8589C25.8204 70.5775 25.8204 71.7425 26.5389 72.4611C27.2575 73.1796 28.4225 73.1796 29.1411 72.4611L49 52.6022L68.8589 72.4611C69.5775 73.1796 70.7425 73.1796 71.4611 72.4611C72.1796 71.7425 72.1796 70.5775 71.4611 69.8589L51.6022 50L71.4611 30.1411C72.1796 29.4225 72.1796 28.2575 71.4611 27.5389C70.7425 26.8204 69.5775 26.8204 68.8589 27.5389L49 47.3978L29.1411 27.5389Z" fill="#E1300B"/>
<path fill-rule="evenodd" clip-rule="evenodd" d="M100 50C100 77.6142 77.6142 100 50 100C22.3858 100 0 77.6142 0 50C0 22.3858 22.3858 0 50 0C77.6142 0 100 22.3858 100 50ZM95 50C95 74.8528 74.8528 95 50 95C25.1472 95 5 74.8528 5 50C5 25.1472 25.1472 5 50 5C74.8528 5 95 25.1472 95 50Z" fill="#E1300B"/>
</svg>
