<svg width="36" height="36" viewBox="0 0 36 36" fill="none" xmlns="http://www.w3.org/2000/svg">
<circle cx="18" cy="18" r="18" fill="#1B3F5A"/>
<path d="M21.4024 27V20.0344H23.7347L24.0838 17.3265H21.4024V15.5976C21.4024 14.8136 21.62 14.2793 22.7443 14.2793L24.1783 14.2787V11.8568C23.9302 11.8238 23.0791 11.7501 22.0888 11.7501C20.0213 11.7501 18.606 13.012 18.606 15.3295V17.3265H16.2677V20.0344H18.606V27H10C9.44772 27 9 26.5523 9 26V10C9 9.44772 9.44772 9 10 9H26C26.5523 9 27 9.44772 27 10V26C27 26.5523 26.5523 27 26 27H21.4024Z" fill="white"/>
</svg>
