<svg width="36" height="36" viewBox="0 0 36 36" fill="none" xmlns="http://www.w3.org/2000/svg">
<circle cx="18" cy="18" r="18" fill="#1B3F5A"/>
<path d="M19.0281 8.00073C20.1535 8.00259 20.7238 8.00855 21.2166 8.02322L21.4107 8.02956C21.6349 8.03753 21.8561 8.04753 22.1228 8.06003C23.1869 8.1092 23.9128 8.27753 24.5503 8.52503C25.2094 8.7792 25.7661 9.12253 26.3219 9.67837C26.8769 10.2342 27.2203 10.7925 27.4753 11.45C27.7219 12.0867 27.8903 12.8134 27.9403 13.8775C27.9522 14.1442 27.9618 14.3654 27.9697 14.5896L27.976 14.7837C27.9906 15.2765 27.9973 15.8469 27.9994 16.9723L28.0002 17.7179C28.0003 17.809 28.0003 17.903 28.0003 18L28.0002 18.2821L27.9996 19.0278C27.9977 20.1532 27.9918 20.7236 27.9771 21.2163L27.9707 21.4104C27.9628 21.6347 27.9528 21.8559 27.9403 22.1225C27.8911 23.1867 27.7219 23.9125 27.4753 24.55C27.2211 25.2092 26.8769 25.7659 26.3219 26.3217C25.7661 26.8767 25.2069 27.22 24.5503 27.475C23.9128 27.7217 23.1869 27.89 22.1228 27.94C21.8561 27.9519 21.6349 27.9616 21.4107 27.9694L21.2166 27.9757C20.7238 27.9904 20.1535 27.997 19.0281 27.9992L18.2824 28C18.1913 28 18.0973 28 18.0003 28H17.7182L16.9725 27.9993C15.8471 27.9975 15.2767 27.9915 14.784 27.9768L14.5899 27.9705C14.3656 27.9625 14.1444 27.9525 13.8778 27.94C12.8136 27.8909 12.0886 27.7217 11.4503 27.475C10.7919 27.2209 10.2344 26.8767 9.67861 26.3217C9.12278 25.7659 8.78028 25.2067 8.52528 24.55C8.27778 23.9125 8.11028 23.1867 8.06028 22.1225C8.0484 21.8559 8.03871 21.6347 8.03086 21.4104L8.02457 21.2163C8.00994 20.7236 8.00327 20.1532 8.00111 19.0278L8.00098 16.9723C8.00284 15.8469 8.00879 15.2765 8.02346 14.7837L8.02981 14.5896C8.03778 14.3654 8.04778 14.1442 8.06028 13.8775C8.10944 12.8125 8.27778 12.0875 8.52528 11.45C8.77944 10.7917 9.12278 10.2342 9.67861 9.67837C10.2344 9.12253 10.7928 8.78003 11.4503 8.52503C12.0878 8.27753 12.8128 8.11003 13.8778 8.06003C14.1444 8.04816 14.3656 8.03847 14.5899 8.03062L14.784 8.02433C15.2767 8.00969 15.8471 8.00302 16.9725 8.00086L19.0281 8.00073ZM18.0003 13C15.2374 13 13.0003 15.2396 13.0003 18C13.0003 20.7629 15.2398 23 18.0003 23C20.7632 23 23.0003 20.7605 23.0003 18C23.0003 15.2371 20.7607 13 18.0003 13ZM18.0003 15C19.6572 15 21.0003 16.3427 21.0003 18C21.0003 19.6569 19.6576 21 18.0003 21C16.3434 21 15.0003 19.6574 15.0003 18C15.0003 16.3431 16.3429 15 18.0003 15ZM23.2503 11.5C22.561 11.5 22.0003 12.0599 22.0003 12.7492C22.0003 13.4384 22.5602 13.9992 23.2503 13.9992C23.9395 13.9992 24.5003 13.4393 24.5003 12.7492C24.5003 12.0599 23.9386 11.4992 23.2503 11.5Z" fill="white"/>
</svg>
