<svg width="32" height="32" viewBox="0 0 32 32" fill="none" xmlns="http://www.w3.org/2000/svg">
<g clip-path="url(#clip0_464_2328)">
<path d="M11.5 9.99997H7.25C8.78561 8.04948 10.9626 6.70615 13.3947 6.2084C15.8267 5.71065 18.3564 6.09067 20.5348 7.28103C22.7133 8.47138 24.3995 10.3951 25.2943 12.7107C26.189 15.0262 26.2344 17.584 25.4224 19.9298C24.6103 22.2757 22.9934 24.258 20.8586 25.5249C18.7237 26.7918 16.2091 27.2613 13.7609 26.8501C11.3128 26.439 9.08947 25.1737 7.48562 23.2789C5.88178 21.3842 5.00114 18.9824 5 16.5V16H3V16.5C2.99819 19.4366 4.0295 22.2802 5.91334 24.5329C7.79719 26.7857 10.4135 28.3039 13.3041 28.8217C16.1946 29.3395 19.1753 28.8239 21.724 27.3653C24.2727 25.9066 26.227 23.5978 27.2447 20.8432C28.2624 18.0886 28.2787 15.0637 27.2906 12.2984C26.3025 9.533 24.373 7.20337 21.8401 5.71744C19.3072 4.23151 16.3323 3.684 13.4363 4.17077C10.5403 4.65755 7.90791 6.14759 6 8.37997V3.99997H4V9.99997C4 10.5304 4.21072 11.0391 4.58579 11.4142C4.96086 11.7893 5.46957 12 6 12H12V9.99997H11.5Z" fill="url(#paint0_linear_464_2328)"/>
</g>
<defs>
<linearGradient id="paint0_linear_464_2328" x1="1.5" y1="10" x2="22.22" y2="5.73997" gradientUnits="userSpaceOnUse">
<stop stop-color="white" stop-opacity="0"/>
<stop offset="0.306554" stop-color="white"/>
</linearGradient>
<clipPath id="clip0_464_2328">
<rect width="25" height="25" fill="white" transform="translate(3 4)"/>
</clipPath>
</defs>
</svg>
