<svg width="68" height="68" viewBox="0 0 68 68" fill="none" xmlns="http://www.w3.org/2000/svg">
<g clip-path="url(#clip0_615_7182)">
<mask id="mask0_615_7182" style="mask-type:alpha" maskUnits="userSpaceOnUse" x="0" y="0" width="68" height="69">
<path d="M33.9996 47.5745L48.0218 33.8583C51.7675 30.1127 53.833 25.1317 53.833 19.8333C53.833 14.535 51.7675 9.55683 48.0218 5.80833C44.279 2.06267 39.298 0 33.9996 0C28.7013 0 23.7203 2.06267 19.9746 5.80833C12.2425 13.5405 12.2425 26.1233 19.986 33.8668L33.9996 47.5745ZM21.9778 7.8115C25.1908 4.60133 29.4606 2.83333 33.9996 2.83333C38.5386 2.83333 42.8085 4.60133 46.0186 7.8115C49.2316 11.0217 50.9996 15.2915 50.9996 19.8333C50.9996 24.3752 49.2316 28.6422 46.03 31.8438L33.9996 43.6135L21.9778 31.8552C15.3506 25.228 15.3506 14.4387 21.9778 7.8115ZM33.9996 28.2767C38.669 28.2767 42.4713 24.4772 42.4713 19.805C42.4713 15.1328 38.669 11.3333 33.9996 11.3333C29.3303 11.3333 25.528 15.1328 25.528 19.805C25.528 24.4772 29.3303 28.2767 33.9996 28.2767ZM33.9996 14.1667C37.1106 14.1667 39.638 16.6968 39.638 19.805C39.638 22.9132 37.1078 25.4433 33.9996 25.4433C30.8915 25.4433 28.3613 22.9132 28.3613 19.805C28.3613 16.6968 30.8915 14.1667 33.9996 14.1667ZM67.8381 47.7303L33.9996 68.034L0.161133 47.7303L16.2091 38.1027L18.4276 40.273L5.66913 47.7303L34.0025 64.7303L62.3358 47.7303L49.6368 40.2107L51.793 38.1027L67.8438 47.7332L67.8381 47.7303Z" fill="black"/>
</mask>
<g mask="url(#mask0_615_7182)">
<rect width="68" height="68" fill="#F23E02"/>
</g>
</g>
<defs>
<clipPath id="clip0_615_7182">
<rect width="68" height="68" fill="white"/>
</clipPath>
</defs>
</svg>
