<svg width="32" height="32" viewBox="0 0 32 32" fill="none" xmlns="http://www.w3.org/2000/svg">
<g clip-path="url(#clip0_202_5247)">
<path d="M15.9999 22.388L22.5986 15.9333C24.3613 14.1707 25.3333 11.8267 25.3333 9.33333C25.3333 6.84 24.3613 4.49733 22.5986 2.73333C20.8373 0.970667 18.4933 0 15.9999 0C13.5066 0 11.1626 0.970667 9.39993 2.73333C5.76126 6.372 5.76126 12.2933 9.40526 15.9373L15.9999 22.388ZM10.3426 3.676C11.8546 2.16533 13.8639 1.33333 15.9999 1.33333C18.1359 1.33333 20.1453 2.16533 21.6559 3.676C23.1679 5.18667 23.9999 7.196 23.9999 9.33333C23.9999 11.4707 23.1679 13.4787 21.6613 14.9853L15.9999 20.524L10.3426 14.9907C7.22393 11.872 7.22393 6.79467 10.3426 3.676ZM15.9999 13.3067C18.1973 13.3067 19.9866 11.5187 19.9866 9.32C19.9866 7.12133 18.1973 5.33333 15.9999 5.33333C13.8026 5.33333 12.0133 7.12133 12.0133 9.32C12.0133 11.5187 13.8026 13.3067 15.9999 13.3067ZM15.9999 6.66667C17.4639 6.66667 18.6533 7.85733 18.6533 9.32C18.6533 10.7827 17.4626 11.9733 15.9999 11.9733C14.5373 11.9733 13.3466 10.7827 13.3466 9.32C13.3466 7.85733 14.5373 6.66667 15.9999 6.66667ZM31.9239 22.4613L15.9999 32.016L0.0759277 22.4613L7.62793 17.9307L8.67193 18.952L2.66793 22.4613L16.0013 30.4613L29.3346 22.4613L23.3586 18.9227L24.3733 17.9307L31.9266 22.4627L31.9239 22.4613Z" fill="white"/>
</g>
<defs>
<clipPath id="clip0_202_5247">
<rect width="32" height="32" fill="white"/>
</clipPath>
</defs>
</svg>
