<svg width="86" height="80" viewBox="0 0 86 80" fill="none" xmlns="http://www.w3.org/2000/svg">
<g opacity="0.3">
<path d="M42.6667 0L79.6171 20V60L42.6667 80L5.71625 60V20L42.6667 0Z" fill="#78A0CA"/>
<path d="M70.8594 23.5914V44.019H46.4846V67.6911L43.4355 69.3242V41.1771H67.7971V25.2312L43.4355 12.1792V8.89685L70.8594 23.5914Z" fill="#042C4A"/>
<path d="M63.1771 27.7089V36.892H43.4355V34.0501H60.1148V29.3486L43.4355 20.4128V17.1304L63.1771 27.7089Z" fill="#042C4A"/>
<path d="M15.9861 25.2317V52.9914L33.1962 62.2124L34.2169 62.759L37.3007 64.4111V44.0195H29.3091V41.1776H40.3629V69.3333L37.5559 67.829L34.2169 66.0405L33.1962 65.4929L12.9238 54.6321V23.592L33.1962 12.7293L34.2169 12.1827L40.3629 8.88892V12.1713L34.2169 15.4641L33.1962 16.0107L15.9861 25.2317Z" fill="#042C4A"/>
<path d="M40.3682 17.1221V20.4045L34.2222 23.6973L33.2014 24.2439L23.6736 29.3489V48.8765L33.2014 53.9825V57.263L20.6113 50.5173V27.7091" fill="#042C4A"/>
</g>
</svg>
