<svg width="116" height="58" viewBox="0 0 116 58" fill="none" xmlns="http://www.w3.org/2000/svg">
<path d="M26.8001 2L51.7416 15.5V42.5L26.8001 56L1.85852 42.5V15.5L26.8001 2Z" fill="#042C4A"/>
<path d="M44.9161 17.9241V31.7127H29.7201V47.6913L27.8193 48.7937V29.7944H43.007V19.0309L27.8193 10.2209V8.00525L44.9161 17.9241Z" fill="white"/>
<path d="M40.1267 20.7034V26.902H27.8193V24.9837H38.2176V21.8102L27.8193 15.7785V13.5629L40.1267 20.7034Z" fill="white"/>
<path d="M10.7079 19.0313V37.7691L23.996 45.4774V31.7131H19.0138V29.7948H25.9051V48.7998L8.79876 38.8766V17.9244L25.9051 7.99988V10.2155L10.7079 19.0313Z" fill="white"/>
<path d="M25.9059 13.5573V15.7729L15.498 21.8104V34.9916L21.4379 38.4381V40.6524L13.5889 36.0991V20.7036" fill="white"/>
<path d="M61.8365 21.1267H66.8585V27.3003H65.3551L65.1952 25.477C64.2995 26.7565 62.956 27.4602 61.2607 27.4602C57.8381 27.4602 55.5989 24.9972 55.5989 21.2547C55.5989 17.5121 57.998 14.9851 61.5806 14.9851C64.0116 14.9851 65.8669 16.1367 66.6986 18.2478L64.8433 18.9516C64.2995 17.5121 63.148 16.7444 61.5486 16.7444C59.2135 16.7444 57.6781 18.5037 57.6781 21.2227C57.6781 24.0056 59.1176 25.7009 61.3887 25.7009C63.052 25.7009 64.6194 24.7413 65.0352 22.6941H61.8365V21.1267Z" fill="#042C4A"/>
<path fill-rule="evenodd" clip-rule="evenodd" d="M74.7598 22.5662L77.6067 27.3003H79.9098L76.839 22.2783C78.3424 21.7345 79.238 20.519 79.238 18.8556C79.238 16.5845 77.5747 15.1451 74.9197 15.1451H69.8977V27.3003H71.8809V22.5662H74.7598ZM71.8809 20.9028V16.9044H74.7278C76.3592 16.9044 77.1589 17.5761 77.1589 18.8876C77.1589 20.1991 76.3592 20.9028 74.7278 20.9028H71.8809Z" fill="#042C4A"/>
<path d="M84.3249 25.509H90.8503V27.3003H82.3096V15.1451H90.6904V16.9364H84.3249V20.1991H89.2509V21.9264H84.3249V25.509Z" fill="#042C4A"/>
<path d="M103.228 15.1451L98.4301 22.5022V27.3003H96.4148V22.4382L91.6167 15.1451H93.9518L97.4704 20.615L100.957 15.1451H103.228Z" fill="#042C4A"/>
<path fill-rule="evenodd" clip-rule="evenodd" d="M110.503 39.4985L111.591 42.3134H113.734L108.84 30.1582H106.377L101.483 42.3134H103.594L104.682 39.4985H110.503ZM109.8 37.7072H105.385L107.593 32.0135L109.8 37.7072Z" fill="#042C4A"/>
<path d="M100.49 30.1582V31.7576L93.3567 40.4582H100.49V42.3134H90.7017V40.7141L97.8669 32.0135H91.0536V30.1582H100.49Z" fill="#042C4A"/>
<path fill-rule="evenodd" clip-rule="evenodd" d="M86.5111 39.4983L87.5987 42.3132H89.7418L84.8477 30.158H82.3847L77.4906 42.3132H79.6018L80.6894 39.4983H86.5111ZM85.8074 37.707H81.3931L83.6002 32.0133L85.8074 37.707Z" fill="#042C4A"/>
<path d="M70.3595 40.4582H76.789V42.3134H68.3443V30.1582H70.3595V40.4582Z" fill="#042C4A"/>
<path fill-rule="evenodd" clip-rule="evenodd" d="M65.9107 33.9007C65.9107 31.5976 64.2474 30.1582 61.5924 30.1582H56.5064V42.3134H58.5216V37.6753H61.5924C64.2474 37.6753 65.9107 36.2358 65.9107 33.9007ZM63.8635 33.9327C63.8635 35.2442 62.9999 35.9479 61.3365 35.9479H58.5216V31.9175H61.3365C62.9999 31.9175 63.8635 32.5893 63.8635 33.9327Z" fill="#042C4A"/>
</svg>
