<svg width="32" height="32" viewBox="0 0 32 32" fill="none" xmlns="http://www.w3.org/2000/svg">
<g clip-path="url(#clip0_261_3776)">
<path d="M18.6138 25.4639C18.4558 25.5197 18.3198 25.568 18.0837 25.6318H18.0902C18.2716 25.5972 18.4488 25.5433 18.6187 25.4708C18.6989 25.4395 18.7901 25.4041 18.9017 25.3662C18.7881 25.4021 18.6994 25.4335 18.6138 25.4639ZM13.4446 25.4972L13.3703 25.4708C13.2787 25.4385 13.184 25.4051 13.0645 25.3657C13.176 25.4036 13.2682 25.44 13.3499 25.4718L13.4436 25.5087C13.5827 25.5628 13.7267 25.6036 13.8735 25.6308H13.8785C13.7046 25.5849 13.5791 25.5441 13.4446 25.4972Z" fill="white"/>
<path d="M30.8044 12.8089H26.5249C26.4116 12.4344 26.2786 12.0663 26.1264 11.7059C25.4965 10.2159 24.5463 8.88297 23.3432 7.80164C22.1401 6.7203 20.7137 5.91713 19.1652 5.44916V1.19565C19.1652 0.878542 19.0393 0.574424 18.815 0.350197C18.5908 0.125969 18.2867 0 17.9696 0H13.995C13.6779 0 13.3738 0.125969 13.1496 0.350197C12.9254 0.574424 12.7994 0.878542 12.7994 1.19565V5.44916C11.2515 5.91831 9.82569 6.72191 8.62277 7.80311C7.41985 8.8843 6.46925 10.2166 5.83824 11.7059C5.68603 12.0663 5.553 12.4344 5.4397 12.8089H1.19565C0.878542 12.8089 0.574424 12.9348 0.350197 13.1591C0.125969 13.3833 0 13.6874 0 14.0045V17.9795C0 18.2966 0.125969 18.6008 0.350197 18.825C0.574424 19.0492 0.878542 19.1752 1.19565 19.1752H5.4397C5.96476 20.9137 6.91141 22.4956 8.19542 23.7799C9.47943 25.0643 11.061 26.0114 12.7994 26.5369V30.8024C12.7994 31.1195 12.9254 31.4236 13.1496 31.6478C13.3738 31.872 13.6779 31.998 13.995 31.998H17.9696C18.2867 31.998 18.5908 31.872 18.815 31.6478C19.0393 31.4236 19.1652 31.1195 19.1652 30.8024V26.5369C20.9036 26.0112 22.485 25.0641 23.769 23.7797C25.053 22.4954 25.9997 20.9137 26.5249 19.1752H30.8044C31.1215 19.1752 31.4256 19.0492 31.6498 18.825C31.874 18.6008 32 18.2966 32 17.9795V14.0045C32 13.6874 31.874 13.3833 31.6498 13.1591C31.4256 12.9348 31.1215 12.8089 30.8044 12.8089ZM30.8044 17.9795H25.5973L25.5719 18.0971C25.5071 18.396 25.4274 18.691 25.3353 18.9804C24.8576 20.4707 24.0309 21.8255 22.924 22.9318C21.8171 24.0382 20.462 24.8643 18.9714 25.3412L18.9251 25.3562L18.9032 25.3637C18.7916 25.4015 18.7004 25.4369 18.6202 25.4683C18.4503 25.5407 18.2731 25.5947 18.0916 25.6292H18.0852L17.9706 25.6516V30.7999H13.995V25.6541L13.879 25.6317H13.874C13.7272 25.6045 13.5832 25.5637 13.4441 25.5096L13.3504 25.4728C13.2687 25.4409 13.1765 25.4045 13.0649 25.3666H13.06L12.9932 25.3412C11.503 24.864 10.1483 24.0378 9.04176 22.9315C7.93522 21.8251 7.10884 20.4705 6.63136 18.9804C6.53919 18.691 6.45948 18.394 6.39472 18.0971L6.36931 17.9795H1.19565V14.0045H6.36732L6.39273 13.8869C6.45749 13.588 6.5372 13.2931 6.62936 13.0037C7.10674 11.5129 7.93328 10.1578 9.0402 9.05104C10.1471 7.9443 11.5024 7.11796 12.9932 6.64082C13.2856 6.54716 13.583 6.46745 13.8765 6.40369L13.9941 6.37828V1.19714H17.9686V6.37828L18.0862 6.40369C18.3796 6.46745 18.677 6.54716 18.9694 6.64082C20.4602 7.11796 21.8155 7.9443 22.9224 9.05104C24.0294 10.1578 24.8559 11.5129 25.3333 13.0037C25.4254 13.2931 25.5051 13.59 25.5699 13.8869L25.5953 14.0045H30.8044V17.9795Z" fill="white"/>
<path d="M20.2449 11.7292C19.2587 10.7431 17.9612 10.1294 16.5733 9.99266C15.1854 9.85596 13.793 10.2047 12.6334 10.9795C11.4738 11.7543 10.6188 12.9073 10.2139 14.2418C9.80908 15.5764 9.8795 17.0101 10.4132 18.2985C10.9469 19.587 11.9108 20.6505 13.1408 21.308C14.3707 21.9654 15.7906 22.176 17.1584 21.9039C18.5262 21.6318 19.7574 20.8939 20.6421 19.8159C21.5269 18.7378 22.0105 17.3863 22.0105 15.9917C22.0125 15.1998 21.8575 14.4153 21.5545 13.6837C21.2514 12.952 20.8063 12.2877 20.2449 11.7292ZM15.9824 20.8241C15.0266 20.8241 14.0923 20.5407 13.2977 20.0097C12.503 19.4787 11.8836 18.724 11.5178 17.841C11.1521 16.958 11.0564 15.9863 11.2428 15.0489C11.4293 14.1115 11.8895 13.2505 12.5654 12.5747C13.2412 11.8988 14.1023 11.4386 15.0396 11.2521C15.977 11.0657 16.9487 11.1614 17.8317 11.5271C18.7147 11.8929 19.4694 12.5123 20.0004 13.307C20.5314 14.1016 20.8148 15.0359 20.8148 15.9917C20.8135 17.2729 20.3039 18.5013 19.398 19.4073C18.492 20.3132 17.2636 20.8228 15.9824 20.8241Z" fill="white"/>
</g>
<defs>
<clipPath id="clip0_261_3776">
<rect width="32" height="31.9955" fill="white"/>
</clipPath>
</defs>
</svg>
