<svg width="32" height="32" viewBox="0 0 32 32" fill="none" xmlns="http://www.w3.org/2000/svg">
<path d="M15.9482 0L2.4259 5.32918C2.02865 5.4861 1.88334 5.84513 2.10134 6.13108C2.31935 6.41703 2.81811 6.52162 3.21535 6.3647L15.9482 1.33485L28.6811 6.3647C29.0784 6.52162 29.5771 6.41703 29.7951 6.13108C30.0131 5.84513 29.8678 5.4861 29.4706 5.32918L15.9482 0Z" fill="white"/>
<g clip-path="url(#clip0_337_1455)">
<path d="M18.2313 9.7699H13.8725C13.0635 9.77082 12.288 10.0926 11.716 10.6646C11.144 11.2366 10.8222 12.0121 10.8213 12.8211V19.7952C10.8213 19.9108 10.8672 20.0217 10.949 20.1034C11.0307 20.1852 11.1416 20.2311 11.2572 20.2311H13.0007V31.1281C13.0007 31.2437 13.0466 31.3546 13.1284 31.4364C13.2101 31.5181 13.321 31.564 13.4366 31.564H18.6672C18.7828 31.564 18.8936 31.5181 18.9754 31.4364C19.0571 31.3546 19.1031 31.2437 19.1031 31.1281V20.2311H20.8466C20.9622 20.2311 21.0731 20.1852 21.1548 20.1034C21.2365 20.0217 21.2825 19.9108 21.2825 19.7952V12.8211C21.2815 12.0121 20.9598 11.2366 20.3878 10.6646C19.8158 10.0926 19.0402 9.77082 18.2313 9.7699ZM20.4107 19.3593H19.1031V13.257H18.2313V30.6923H16.4878V20.667H15.616V30.6923H13.8725V13.257H13.0007V19.3593H11.6931V12.8211C11.6937 12.2433 11.9236 11.6893 12.3322 11.2808C12.7407 10.8722 13.2947 10.6424 13.8725 10.6417H18.2313C18.8091 10.6424 19.363 10.8722 19.7716 11.2808C20.1802 11.6893 20.41 12.2433 20.4107 12.8211V19.3593ZM18.6672 7.1546C18.6672 6.63735 18.5138 6.13171 18.2264 5.70162C17.939 5.27154 17.5306 4.93633 17.0527 4.73839C16.5748 4.54044 16.049 4.48865 15.5417 4.58956C15.0343 4.69047 14.5683 4.93955 14.2026 5.30531C13.8368 5.67107 13.5877 6.13707 13.4868 6.64438C13.3859 7.1517 13.4377 7.67755 13.6357 8.15543C13.8336 8.63332 14.1688 9.04177 14.5989 9.32914C15.029 9.61651 15.5346 9.7699 16.0519 9.7699C16.7453 9.76921 17.4101 9.49344 17.9004 9.00313C18.3907 8.51282 18.6665 7.84801 18.6672 7.1546ZM16.0519 8.89813C15.707 8.89813 15.3699 8.79588 15.0832 8.6043C14.7965 8.41271 14.573 8.14041 14.4411 7.82182C14.3091 7.50324 14.2746 7.15267 14.3419 6.81446C14.4091 6.47625 14.5752 6.16558 14.819 5.92174C15.0629 5.6779 15.3735 5.51185 15.7117 5.44457C16.0499 5.3773 16.4005 5.41183 16.7191 5.54379C17.0377 5.67576 17.31 5.89923 17.5016 6.18595C17.6932 6.47267 17.7954 6.80977 17.7954 7.1546C17.7954 7.61702 17.6117 8.06049 17.2847 8.38747C16.9578 8.71444 16.5143 8.89813 16.0519 8.89813Z" fill="white"/>
</g>
<defs>
<clipPath id="clip0_337_1455">
<rect width="27.8965" height="27.8965" fill="white" transform="translate(2.10352 4.10352)"/>
</clipPath>
</defs>
</svg>
