<svg width="32" height="32" viewBox="0 0 32 32" fill="none" xmlns="http://www.w3.org/2000/svg">
<rect width="32" height="32" rx="16" fill="#1B3F5A"/>
<g clip-path="url(#clip0_615_7155)">
<path d="M23.9556 9.95528C23.9082 9.64344 23.8058 9.34248 23.6533 9.06639C23.3768 8.59692 22.9318 8.25049 22.4089 8.09753C21.9235 7.94086 21.4001 7.94725 20.9186 8.11576C20.4372 8.28427 20.024 8.60565 19.7422 9.03085L16.0444 15.0397L12.32 8.99532C12.0984 8.68483 11.8066 8.43114 11.4683 8.25503C11.1299 8.07891 10.7547 7.98535 10.3733 7.98197C10.1315 7.98058 9.89115 8.01964 9.66221 8.09753C9.19062 8.24607 8.78024 8.54415 8.49316 8.9467C8.20608 9.34926 8.05794 9.83439 8.07112 10.3286V23.982H10.9511V12.5686L15.2356 19.5286L15.9911 20.7553L16.7467 19.5286L21.0311 12.5686V23.9998H23.9911V10.7731C23.9911 10.7731 23.9911 10.1686 23.9556 9.95528ZM10.2222 10.0886C10.2222 10.0886 10.0711 10.0886 10.0711 10.3464V23.1109H8.88888V10.3464C8.88065 10.042 8.97033 9.74298 9.14474 9.49336C9.31916 9.24374 9.56913 9.05668 9.8578 8.95973C10.0017 8.91448 10.1514 8.89056 10.3022 8.88865C10.5415 8.89063 10.7768 8.94969 10.9887 9.06102C11.2005 9.17234 11.3827 9.33267 11.52 9.52863L15.9645 16.7997L20.4089 9.56416C20.5838 9.29072 20.8445 9.08305 21.1502 8.97367C21.4558 8.86429 21.789 8.85937 22.0978 8.95973C22.3864 9.05668 22.6364 9.24374 22.8108 9.49336C22.9852 9.74298 23.0749 10.042 23.0667 10.3464V23.1109H21.8844V10.3464C21.8844 10.1331 21.7689 10.0975 21.7333 10.0886H21.6533C21.6027 10.0882 21.5529 10.1002 21.508 10.1234C21.4631 10.1466 21.4245 10.1805 21.3956 10.222L15.9556 19.1109L10.4889 10.222C10.4608 10.1886 10.4253 10.1622 10.3851 10.1452C10.3449 10.1282 10.3013 10.121 10.2578 10.1242L10.2222 10.0886Z" fill="white"/>
</g>
<defs>
<clipPath id="clip0_615_7155">
<rect width="16" height="16" fill="white" transform="translate(8 8)"/>
</clipPath>
</defs>
</svg>
