<svg width="100" height="100" viewBox="0 0 100 100" fill="none" xmlns="http://www.w3.org/2000/svg">
<path fill-rule="evenodd" clip-rule="evenodd" d="M50 95C74.8528 95 95 74.8528 95 50C95 25.1472 74.8528 5 50 5C25.1472 5 5 25.1472 5 50C5 74.8528 25.1472 95 50 95ZM50 100C77.6142 100 100 77.6142 100 50C100 22.3858 77.6142 0 50 0C22.3858 0 0 22.3858 0 50C0 77.6142 22.3858 100 50 100Z" fill="#E1300B"/>
<path fill-rule="evenodd" clip-rule="evenodd" d="M71.4846 26.82C72.3624 27.3889 72.6127 28.5617 72.0438 29.4394L43.9416 72.7971L27.5787 47.6233C27.0086 46.7463 27.2574 45.5732 28.1344 45.0032C29.0115 44.4331 30.1845 44.6819 30.7546 45.5589L43.9371 65.8397L68.8652 27.3792C69.4341 26.5014 70.6069 26.2511 71.4846 26.82Z" fill="#E1300B"/>
</svg>
