<svg width="36" height="36" viewBox="0 0 36 36" fill="none" xmlns="http://www.w3.org/2000/svg">
<circle cx="18" cy="18" r="18" fill="#1B3F5A"/>
<path d="M8.44066 17.8852L13.0407 19.3813L23.9629 12.9863C24.1215 12.894 24.2836 13.0999 24.1472 13.2203L15.8786 20.5094L15.5714 24.5901C15.5664 24.6585 15.5832 24.7267 15.6196 24.7857C15.656 24.8447 15.7102 24.8917 15.7752 24.9205C15.8401 24.9493 15.9126 24.9585 15.9831 24.9469C16.0537 24.9353 16.1188 24.9034 16.17 24.8555L18.7157 22.4577L23.3701 25.8317C23.8715 26.1957 24.5979 25.9392 24.7329 25.3508L27.9737 11.2583C28.1587 10.4544 27.3358 9.77581 26.5337 10.07L8.4178 16.714C7.84923 16.9227 7.86494 17.6977 8.44066 17.8852Z" fill="white"/>
</svg>
