<svg width="36" height="36" viewBox="0 0 36 36" fill="none" xmlns="http://www.w3.org/2000/svg">
<circle cx="18" cy="18" r="18" fill="#1B3F5A"/>
<path d="M22 14.2454V21.5C22 25.0899 19.0899 28 15.5 28C11.9102 28 9 25.0899 9 21.5C9 17.9101 11.9102 15 15.5 15C16.0163 15 16.5185 15.0602 17 15.1739V18.3368C16.5454 18.1208 16.0368 18 15.5 18C13.567 18 12 19.567 12 21.5C12 23.433 13.567 25 15.5 25C17.433 25 19 23.433 19 21.5V8H22C22 10.7614 24.2386 13 27 13V16C25.1081 16 23.3696 15.3433 22 14.2454Z" fill="white"/>
</svg>
