<svg width="32" height="32" viewBox="0 0 32 32" fill="none" xmlns="http://www.w3.org/2000/svg">
<rect width="32" height="32" rx="16" fill="#1B3F5A"/>
<path d="M22 10.3333C22 9.04667 21.058 8 19.9 8H12.1C10.942 8 10 9.04667 10 10.3333V20.6667H12.4372L10.6 24H11.3044L13.1416 20.6667H18.8584L20.6956 24H21.4L19.5628 20.6667H22V10.3333ZM12.1 8.66667H19.9C20.7274 8.66667 21.4 9.41467 21.4 10.3333V10.6667H10.6V10.3333C10.6 9.41467 11.2726 8.66667 12.1 8.66667ZM16.3 16V11.3333H21.4V16H16.3ZM10.6 16V11.3333H15.7V16H10.6ZM10.6 20V16.6667H12.4V17.6667C12.4 17.8507 12.5344 18 12.7 18C12.8656 18 13 17.8507 13 17.6667V16.6667H19V17.6667C19 17.8507 19.1344 18 19.3 18C19.4656 18 19.6 17.8507 19.6 17.6667V16.6667H21.4V20H10.6Z" fill="white"/>
</svg>
