<svg width="32" height="32" viewBox="0 0 32 32" fill="none" xmlns="http://www.w3.org/2000/svg">
<g clip-path="url(#clip0_261_3773)">
<path d="M31.8968 15.4329L27.2516 9.23934C27.2035 9.17525 27.1412 9.12322 27.0695 9.08739C26.9979 9.05156 26.9188 9.0329 26.8387 9.03289H22.1935V3.8716C22.1935 3.73471 22.1392 3.60343 22.0424 3.50664C21.9456 3.40985 21.8143 3.35547 21.6774 3.35547H0.516129C0.379243 3.35547 0.247964 3.40985 0.151171 3.50664C0.0543777 3.60343 0 3.73471 0 3.8716L0 25.0329C0 25.1698 0.0543777 25.3011 0.151171 25.3978C0.247964 25.4946 0.379243 25.549 0.516129 25.549H1.58968C1.87297 27.5215 3.70168 28.891 5.67426 28.6077C7.25968 28.38 8.50523 27.1344 8.7329 25.549H23.2671C23.5504 27.5215 25.3791 28.891 27.3517 28.6077C28.9371 28.38 30.1826 27.1344 30.4103 25.549H31.4839C31.6208 25.549 31.752 25.4946 31.8488 25.3978C31.9456 25.3011 32 25.1698 32 25.0329V15.7426C32 15.6309 31.9638 15.5222 31.8968 15.4329ZM1.03226 4.38773H21.1613V21.9361H7.22581C7.17105 21.9381 7.117 21.9491 7.06581 21.9686C6.49526 21.6101 5.83511 21.42 5.16129 21.42C4.48747 21.42 3.82732 21.6101 3.25677 21.9686C3.20558 21.9491 3.15153 21.9381 3.09677 21.9361H1.03226V4.38773ZM1.58968 24.5168H1.03226V22.9684H2.20077C1.87831 23.4294 1.66896 23.9598 1.58968 24.5168ZM5.16129 27.6135C3.73606 27.6135 2.58065 26.4581 2.58065 25.0329C2.58065 23.6077 3.73606 22.4522 5.16129 22.4522C6.58652 22.4522 7.74194 23.6077 7.74194 25.0329C7.74026 26.4574 6.58581 27.6118 5.16129 27.6135ZM23.2671 24.5168H8.7329C8.65362 23.9598 8.44427 23.4294 8.12181 22.9684H23.8782C23.5557 23.4294 23.3464 23.9598 23.2671 24.5168ZM26.8387 27.6135C25.4135 27.6135 24.2581 26.4581 24.2581 25.0329C24.2581 23.6077 25.4135 22.4522 26.8387 22.4522C28.2639 22.4522 29.4194 23.6077 29.4194 25.0329C29.4177 26.4574 28.2632 27.6118 26.8387 27.6135ZM30.9677 24.5168H30.4103C30.331 23.9598 30.1217 23.4294 29.7992 22.9684H30.9677V24.5168ZM30.9677 21.9361H28.9032C28.8485 21.9381 28.7944 21.9491 28.7432 21.9686C28.1727 21.6101 27.5125 21.42 26.8387 21.42C26.1649 21.42 25.5047 21.6101 24.9342 21.9686C24.883 21.9491 24.8289 21.9381 24.7742 21.9361H22.1935V10.0651H23.2258V17.291C23.2258 17.4278 23.2802 17.5591 23.377 17.6559C23.4738 17.7527 23.605 17.8071 23.7419 17.8071H30.9677V21.9361ZM30.9677 16.7748H24.2581V10.0651H26.5806L30.9677 15.9144V16.7748Z" fill="white"/>
</g>
<defs>
<clipPath id="clip0_261_3773">
<rect width="32" height="32" fill="white"/>
</clipPath>
</defs>
</svg>
