<svg width="64" height="64" viewBox="0 0 64 64" fill="none" xmlns="http://www.w3.org/2000/svg">
<path d="M58.9985 27.4216C58.9774 26.9372 58.7076 26.0393 57.1377 25.468L15.285 10.2498C13.1396 9.46924 10.7587 10.5791 9.9778 12.7246L8.84482 15.8372L6.29574 22.8409C5.51492 24.9865 6.62503 27.3671 8.77081 28.1481L20.9687 32.5827C20.8561 33.2613 20.8866 33.956 21.0582 34.6222C21.2298 35.2884 21.5387 35.9114 21.9651 36.4513L19.3667 43.59C19.3077 43.7509 19.2008 43.8898 19.0604 43.988C18.9201 44.0862 18.7529 44.139 18.5816 44.1394H10.9688V41.655C10.9688 40.2852 9.85431 39.1706 8.48438 39.1706H6.82813C6.60849 39.1706 6.39786 39.2579 6.24255 39.4132C6.08725 39.5685 6 39.7791 6 39.9987V53.2488C6 53.4684 6.08725 53.679 6.24255 53.8343C6.39786 53.9896 6.60849 54.0769 6.82813 54.0769H8.48438C9.85431 54.0769 10.9688 52.9623 10.9688 51.5925V49.1081H18.5816C21.013 49.1081 23.2048 47.5732 24.0358 45.2888L26.5796 38.3C28.0353 38.0957 29.3582 37.2457 30.1435 35.9182L44.3979 41.1005C44.8504 41.2657 45.3283 41.3503 45.81 41.3504C47.2335 41.3503 48.586 40.6104 49.3434 39.3754L50.9792 39.9707C51.1639 40.0379 51.3554 40.0714 51.5464 40.0714C51.7848 40.0714 52.0224 40.0192 52.2449 39.9155C52.4422 39.8242 52.6194 39.6946 52.7663 39.5343C52.9132 39.374 53.0268 39.1861 53.1006 38.9816L55.3673 32.7539C55.643 31.9965 55.3284 31.1664 54.6604 30.7676L57.3152 29.5298C58.8292 28.8238 59.0197 27.9059 58.9985 27.4216ZM9.31251 51.5925C9.31251 52.0491 8.94099 52.4206 8.48438 52.4206H7.65625V40.8269H8.48438C8.94099 40.8269 9.31251 41.1984 9.31251 41.655V51.5925ZM22.4794 44.7225C21.8855 46.355 20.3191 47.4519 18.5816 47.4519H10.9688V45.7956H18.5816C19.6253 45.7956 20.5661 45.137 20.923 44.1566L23.3003 37.6253C23.7768 37.9117 24.2973 38.1176 24.8408 38.2346L22.4794 44.7225ZM25.9893 36.6881C25.9702 36.6878 25.9511 36.6882 25.9321 36.6891C25.5264 36.6944 25.1231 36.6257 24.7421 36.4864C24.2966 36.3251 23.8906 36.0706 23.5514 35.7398C23.5211 35.703 23.4876 35.6689 23.4513 35.638C23.1418 35.3085 22.9034 34.9187 22.7513 34.493C22.5991 34.0673 22.5363 33.6148 22.5669 33.1637L28.5457 35.3373C28.2509 35.7426 27.8672 36.075 27.4241 36.3091C26.981 36.5432 26.4902 36.6729 25.9893 36.6881ZM53.8112 32.1874L51.5459 38.4144L49.9884 37.8476L52.137 31.9444L52.5768 31.7393L53.8112 32.1874ZM56.6154 28.0287L52.1883 30.093L52.187 30.0936L51.1268 30.588L51.1256 30.5885L49.8826 31.1681C48.4239 31.8483 45.9135 31.9578 44.4006 31.4072L20.4461 22.7035C11.3956 19.4114 11.1678 19.4215 10.9688 19.5144C10.7697 19.6073 10.6158 19.7755 10.5408 19.982C10.4658 20.1884 10.4759 20.4162 10.5688 20.6152C10.6618 20.8142 10.8299 20.9682 11.0364 21.0432L43.8346 32.9638C44.6681 33.2672 45.6955 33.4149 46.7439 33.4149C47.8902 33.4149 49.0605 33.2374 50.0291 32.8936L48.149 38.0592C47.6805 39.3465 46.252 40.0125 44.9645 39.5439L9.33694 26.5917C8.04961 26.1232 7.38359 24.6948 7.8521 23.4074L9.26903 19.5144C9.757 20.2664 10.477 20.8387 11.3197 21.1445L12.0981 21.4277C12.304 21.5007 12.5304 21.4894 12.728 21.3963C12.9257 21.3031 13.0785 21.1357 13.1532 20.9304C13.2279 20.7251 13.8672 20.4447 13.7006 20.2849C13.0391 20.0306 12.8691 19.9477 12.6645 19.8713L11.8861 19.5881C10.599 19.1196 9.93288 17.6915 10.4011 16.4043L10.6845 15.6255L11.5342 13.291C12.0028 12.0037 13.4312 11.3374 14.7187 11.8062L56.5715 27.0245C57.1032 27.218 57.2998 27.4196 57.3398 27.4939C57.3065 27.5716 57.1282 27.7895 56.6154 28.0287Z" fill="#042C4A"/>
</svg>
