<svg width="36" height="36" viewBox="0 0 36 36" fill="none" xmlns="http://www.w3.org/2000/svg">
<circle cx="18" cy="18" r="18" fill="#1B3F5A"/>
<path d="M18.001 8C23.5238 8 28.001 12.4771 28.001 18C28.001 23.5228 23.5238 28 18.001 28C16.1671 28 14.4485 27.5064 12.9709 26.6447L8.00516 28L9.35712 23.0315C8.49494 21.5536 8.00098 19.8345 8.00098 18C8.00098 12.4771 12.4781 8 18.001 8ZM14.3923 13.3083C14.2629 13.3174 14.1361 13.349 14.0206 13.4081C13.9339 13.4524 13.8535 13.5165 13.7271 13.6359C13.6077 13.7485 13.5386 13.847 13.4657 13.9419C13.096 14.4232 12.8973 15.0141 12.901 15.621C12.903 16.1116 13.0304 16.5884 13.2317 17.0336C13.6398 17.9364 14.3129 18.8908 15.2019 19.7759C15.4155 19.9885 15.6247 20.2034 15.8503 20.402C16.9538 21.3736 18.2688 22.0742 19.6907 22.4482C19.6907 22.4482 20.2507 22.5342 20.2589 22.5347C20.4444 22.5447 20.6296 22.5313 20.8153 22.5218C21.1066 22.5068 21.391 22.428 21.6484 22.2909C21.8139 22.2028 21.8922 22.159 22.0311 22.0714C22.0311 22.0714 22.0737 22.0426 22.1559 21.9814C22.2909 21.8808 22.3743 21.81 22.4866 21.6934C22.5694 21.6074 22.6406 21.5058 22.6956 21.3913C22.7738 21.2281 22.8525 20.9166 22.8838 20.6579C22.9077 20.4603 22.9005 20.3523 22.8979 20.2854C22.8936 20.1778 22.8047 20.0671 22.7073 20.0201L22.1258 19.7587C22.1258 19.7587 21.2563 19.3803 20.7245 19.1377C20.6691 19.1124 20.6085 19.1007 20.5476 19.097C20.4142 19.0888 20.2647 19.1236 20.1696 19.2238C20.1646 19.2218 20.0984 19.279 19.3749 20.1555C19.335 20.2032 19.2415 20.3069 19.0798 20.2972C19.0554 20.2955 19.0311 20.292 19.0074 20.2858C18.9419 20.2685 18.8781 20.2457 18.8157 20.2193C18.692 20.1668 18.6486 20.1469 18.5641 20.1105C17.9868 19.8583 17.457 19.5209 16.9887 19.108C16.8631 18.9974 16.7463 18.8783 16.6259 18.7616C16.2057 18.3543 15.8617 17.9211 15.6058 17.4938C15.5918 17.4705 15.5703 17.4368 15.5471 17.3991C15.5052 17.331 15.459 17.25 15.4445 17.1944C15.4074 17.0473 15.506 16.9291 15.506 16.9291C15.506 16.9291 15.7494 16.663 15.8625 16.5183C15.9713 16.379 16.0652 16.2428 16.125 16.1457C16.2428 15.9563 16.2801 15.7606 16.2182 15.6096C15.9376 14.9256 15.6482 14.2454 15.3499 13.5689C15.291 13.4355 15.1158 13.3385 14.9566 13.3201C14.9026 13.3138 14.8487 13.3076 14.7946 13.304C14.6605 13.2975 14.5262 13.2989 14.3923 13.3083Z" fill="white"/>
</svg>
